<svg xmlns="http://www.w3.org/2000/svg" viewBox="0 0 496.94 492.4"><defs><style>.cls-1{fill:#a7a9ac;}.cls-2{fill:#808285;}.cls-3{fill:#414042;}.cls-4{fill:#58595b;}.cls-5{fill:#6d6e71;}.cls-6{fill:#f89521;}</style></defs><g id="Hand"><path class="cls-1" d="M299.72,160.37l.46-44.55-19-22.59A22.77,22.77,0,0,1,262.1,75.61c-3.94-16.22,1.76-31.6,1.76-31.6S293,59.34,286.54,87.09l13.78,15.29.4-38.95s-20.09-13.27,4.4-49.23c0,0,25.2,34.6,2.37,49.05l-1,97.19Z" transform="translate(-7.53 -14.2)"/><path class="cls-2" d="M178.4,249.07l27.51,41.16s33.89-34.58,48.42-34.43,18.88,1.51,31.43,5.75,42.83,5.14,60.8.63c15.91-16,30.27-46.39,30.27-46.39s1.53-7.33-3.77-10.32-13.5-6.9-18,5.39S344,231.31,332.34,231.19s-32.44-1.8-32.44-1.8-4.55-5.33.09-8.81c0,0,30.26,2.07,34.41-1.12,0,0,6.63-8.74,1.85-15.25a15.11,15.11,0,0,0-11.8-6.29s-35.13.52-67-8C224.39,199,248.05,220.7,178.4,249.07Z" transform="translate(-7.53 -14.2)"/><path class="cls-3" d="M230.82,182.94s86.4,12.46,99.35,10.72,16.09,22.2,16.09,22.2S356,194.3,368,196.29c0,0-24.44-48.78-44.26-38.53-9.33-20.63-33.68-17.9-33.68-17.9s-20.83-10.67-23.84,12.45C252.06,154,245.94,150.24,230.82,182.94Z" transform="translate(-7.53 -14.2)"/><path class="cls-1" d="M317.56,109s-7.48-40.9,28.53-39.41C346.09,69.58,351.66,116.56,317.56,109Z" transform="translate(-7.53 -14.2)"/></g><g id="Hen"><path class="cls-4" d="M264.91,316.91s-18.53-58,41.33-68.66c0,0,15.68-2.85,39.91,16.39s70.54-24.94,59.14-46.32c0,0-3.56-7.13-7.12,0,0,0,.35-6.06,1.95-6.59,0,0-2.13-5.17-6.41-3.75,0,0,3.55-6.37,13.36-.24s-3-12.58-8.9-14.9c0,0,7.12-4.1,15.85,5.52,0,0,2.85-14.07,2-18.34,0,0,8.55,1.24,9.44,11.75,0,0,8-12.11,5-15.14,0,0,7.66,2,6.24,16.57,0,0,4.63-.71,7.12-4.28,0,0,1.25.36,0,8.73s3.21,10,3.21,10l10.33-3-7.13,7.84s2.68,9.08,10.87,9.44c0,0-1.25,4.1-16.21.53,0,0-2.85,10.52,2,15.15,0,0,17.81,9.26,4.1,19.77s-14.43-10.56-14.43-10.56,1.84,89.6-35.93,101c0,0-24.23,11.17-25.42,45.37l-.47,33.73h-15.2l.71-57.24s.95-11.64-23-21.38c0,0-13.07-7.6-19.72-25.18s-12.11,3.32-12.11,3.32l-2.38-9.48s-10.45,8.3-8.31,24.45c0,0-7.84-10.45-5.46-29.93,0,0-10,17.58-6.89,33,0,0-12.83-13.07-9.26-36.35C273,308.1,267.05,303.86,264.91,316.91Z" transform="translate(-7.53 -14.2)"/><path class="cls-4" d="M504.88,301.75" transform="translate(-7.53 -14.2)"/><polygon class="cls-2" points="259.52 348.06 271.27 370.16 259.52 388.33 300.67 388.33 307.08 376.04 428.4 374.43 423.59 393.67 465.81 368.55 421.45 343.43 426.8 360 306.55 360 301.38 348.24 259.52 348.06"/></g><g id="Tractor"><path class="cls-5" d="M282.49,301l-23.08-5.18-92.05,29.2-13.32-3,2.4,12.86-56.23-12.63-58.3-13.1,4.5-20L59.13,292l5.72-25.46s7.12-20.64,27-16.47L96,231.5l3.55.8s4.7-7.06-6-9.45l1.47-6.58s16.23-.26,12.11,18l4.44,1-3.34,14.87,29.6,6.65L160.28,203,268,227.16,257.14,275.5l29.59,6.65Z" transform="translate(-7.53 -14.2)"/><path class="cls-1" d="M242.51,272.82S220.65,262.2,199,271.45l10-44.62,41.73,9.37Z" transform="translate(-7.53 -14.2)"/><ellipse class="cls-1" cx="80.01" cy="319.46" rx="29.32" ry="30.33" transform="translate(-256.74 313.31) rotate(-77.34)"/><ellipse class="cls-2" cx="78.85" cy="319.2" rx="16.42" ry="16.99" transform="translate(-257.39 311.97) rotate(-77.34)"/><ellipse class="cls-1" cx="220.15" cy="326.19" rx="53.46" ry="55.31" transform="translate(-153.9 455.29) rotate(-77.34)"/><ellipse class="cls-2" cx="220.15" cy="326.19" rx="29.21" ry="30.22" transform="translate(-153.9 455.29) rotate(-77.34)"/><path class="cls-1" d="M197.13,223l-8.22,36.61-10-2.24-2.44,10.87,10,2.24-1.73,7.73s-11.58,4.91-14.09,16.06l-23.76-5.34,8.26-36.75,9.75-36.33Z" transform="translate(-7.53 -14.2)"/></g><g id="Background"><g id="Background-2" data-name="Background"><path class="cls-6" d="M504.47,301.29c-16,29.33-100.31,163.4-256.23,68.15C141.52,304.25,57,285.87,7.53,281.44c13,126.5,120,225.16,249.9,225.16C380.53,506.53,482.92,418.05,504.47,301.29Z" transform="translate(-7.53 -14.2)"/></g></g></svg>