<svg id="Layer_1" data-name="Layer 1" xmlns="http://www.w3.org/2000/svg" viewBox="0 0 496.94 492.4"><defs><style>.cls-1{fill:#00a14b;}.cls-2{fill:#6ebe44;}.cls-3{fill:#104734;}.cls-4{fill:#0d743b;}.cls-5{fill:#58595b;}.cls-6{fill:#808285;}.cls-7{fill:#f7de02;}</style></defs><path class="cls-1" d="M299.52,156l.45-44.55L281,88.83A22.77,22.77,0,0,1,261.9,71.21C258,55,263.66,39.62,263.66,39.62s29.12,15.32,22.68,43.07L300.11,98l.4-38.95S280.43,45.76,304.92,9.8c0,0,25.2,34.61,2.37,49.06l-1,97.18Z" transform="translate(-7.33 -9.8)"/><path class="cls-2" d="M178.2,244.67l27.51,41.16s33.89-34.58,48.42-34.43,18.88,1.51,31.43,5.75,42.82,5.14,60.79.63c15.91-16,30.28-46.39,30.28-46.39s1.52-7.33-3.77-10.32-13.5-6.89-18,5.4-11.12,20.44-22.74,20.32S299.7,225,299.7,225s-4.55-5.33.09-8.81c0,0,30.26,2.07,34.41-1.12,0,0,6.63-8.74,1.85-15.25a15.12,15.12,0,0,0-11.81-6.29s-35.13.52-67-8C224.19,194.55,247.84,216.3,178.2,244.67Z" transform="translate(-7.33 -9.8)"/><path class="cls-3" d="M230.62,178.54S317,191,330,189.26s16.09,22.2,16.09,22.2,9.76-21.56,21.75-19.57c0,0-24.44-48.78-44.25-38.53-9.33-20.63-33.69-17.9-33.69-17.9S269.05,124.8,266,147.91C251.85,149.63,245.74,145.84,230.62,178.54Z" transform="translate(-7.33 -9.8)"/><path class="cls-1" d="M317.36,104.59s-7.49-40.9,28.53-39.41C345.89,65.18,351.46,112.16,317.36,104.59Z" transform="translate(-7.33 -9.8)"/><path class="cls-4" d="M264.71,312.51s-18.53-58,41.33-68.66c0,0,15.67-2.85,39.9,16.39s70.55-24.94,59.15-46.32c0,0-3.57-7.13-7.13,0,0,0,.36-6.06,2-6.59,0,0-2.14-5.17-6.41-3.74,0,0,3.55-6.38,13.35-.25s-3-12.58-8.9-14.9c0,0,7.13-4.09,15.86,5.53,0,0,2.85-14.08,2-18.35,0,0,8.55,1.24,9.44,11.75,0,0,8-12.11,5-15.14,0,0,7.66,2,6.23,16.57,0,0,4.63-.71,7.13-4.28,0,0,1.25.36,0,8.73s3.2,10,3.2,10l10.34-3L450,208s2.67,9.09,10.87,9.44c0,0-1.25,4.1-16.21.54,0,0-2.85,10.51,2,15.14,0,0,17.81,9.26,4.09,19.77s-14.43-10.56-14.43-10.56,1.84,89.6-35.92,101c0,0-24.23,11.17-25.42,45.37l-.47,33.73H359.24l.72-57.24s1-11.64-23-21.38c0,0-13.07-7.6-19.72-25.18S305.09,322,305.09,322l-2.38-9.49s-10.45,8.3-8.31,24.45c0,0-7.84-10.45-5.47-29.93,0,0-10,17.58-6.88,33,0,0-12.83-13.07-9.27-36.34C272.78,303.71,266.84,299.46,264.71,312.51Z" transform="translate(-7.33 -9.8)"/><path class="cls-5" d="M504.67,297.35" transform="translate(-7.33 -9.8)"/><polygon class="cls-3" points="259.52 348.06 271.27 370.16 259.52 388.33 300.67 388.33 307.08 376.04 428.4 374.43 423.59 393.67 465.81 368.55 421.45 343.43 426.8 360 306.55 360 301.38 348.24 259.52 348.06"/><path class="cls-3" d="M282.29,296.63l-23.08-5.18-92.06,29.2-13.31-3,2.39,12.86L100,317.88l-58.3-13.1,4.49-20,12.73,2.86,5.72-25.46s7.12-20.63,27-16.47l4.18-18.59,3.55.8s4.7-7.06-6-9.45l1.48-6.58s16.22-.26,12.11,18l4.44,1-3.34,14.88,29.59,6.64,22.36-53.87,107.73,24.2L256.94,271.1l29.59,6.65Z" transform="translate(-7.33 -9.8)"/><path class="cls-4" d="M242.31,268.42s-21.87-10.62-43.53-1.37l10-44.62,41.73,9.38Z" transform="translate(-7.33 -9.8)"/><ellipse class="cls-2" cx="79.81" cy="315.06" rx="29.32" ry="30.33" transform="translate(-252.41 314.07) rotate(-77.34)"/><ellipse class="cls-6" cx="78.65" cy="314.8" rx="16.42" ry="16.99" transform="translate(-253.06 312.74) rotate(-77.34)"/><ellipse class="cls-1" cx="219.95" cy="321.8" rx="53.46" ry="55.31" transform="translate(-149.56 456.06) rotate(-77.34)"/><ellipse class="cls-2" cx="219.95" cy="321.8" rx="29.21" ry="30.22" transform="translate(-149.56 456.06) rotate(-77.34)"/><path class="cls-4" d="M196.93,218.56l-8.23,36.61-10-2.24-2.44,10.87,10,2.24-1.73,7.73s-11.59,4.91-14.09,16.06l-23.76-5.33,8.25-36.76,9.76-36.33Z" transform="translate(-7.33 -9.8)"/><g id="Background"><path class="cls-7" d="M504.27,296.89C488.27,326.22,404,460.29,248,365,141.32,299.85,56.82,281.47,7.33,277c13,126.5,120,225.16,249.9,225.16C380.33,502.13,482.72,413.65,504.27,296.89Z" transform="translate(-7.33 -9.8)"/></g></svg>