<svg id="Layer_1" data-name="Layer 1" xmlns="http://www.w3.org/2000/svg" viewBox="0 0 496.94 495.28"><defs><style>.cls-1{fill:#40b549;}.cls-2{fill:#414042;}.cls-3{fill:#104734;}.cls-4{fill:#00a14b;}.cls-5{fill:#09753b;}.cls-6{fill:#f7de02;}</style></defs><path class="cls-1" d="M93.68,217.05v80.49H108V204.88s23.48-14.7,45.7,0v92.66h15.19V218.18s56.76,23,56.76,91.41c0,0,27.87,21.47-18.84,31.08s-146,2.26-154.06,0-40.94-8.84-16.7-31.82C36.05,308.85,26.76,242.79,93.68,217.05Z" transform="translate(-7.53 -11.67)"/><polygon class="cls-2" points="294.29 267.66 314.36 267.66 317.61 289.07 290.66 289.07 294.29 267.66"/><polygon class="cls-3" points="346.79 280.67 360.98 294.86 348.14 312.3 329.08 293.24 346.79 280.67"/><polygon class="cls-3" points="373.13 327.11 373.13 347.18 351.72 350.43 351.72 323.48 373.13 327.11"/><polygon class="cls-3" points="359.18 377.43 344.99 391.63 327.55 378.79 346.61 359.73 359.18 377.43"/><polygon class="cls-3" points="248.81 294.72 263 280.53 280.44 293.37 261.38 312.43 248.81 294.72"/><polygon class="cls-3" points="234.85 346.8 234.85 326.73 256.26 323.48 256.26 350.43 234.85 346.8"/><polygon class="cls-2" points="260.9 392.73 246.71 378.54 259.55 361.1 278.61 380.16 260.9 392.73"/><polygon class="cls-2" points="313.98 406.43 293.91 406.43 290.66 385.02 317.61 385.02 313.98 406.43"/><path class="cls-4" d="M310.11,293.57A55.41,55.41,0,1,0,365.53,349,55.41,55.41,0,0,0,310.11,293.57Zm1.37,81.72a26.67,26.67,0,1,1,26.66-26.67A26.67,26.67,0,0,1,311.48,375.29Z" transform="translate(-7.53 -11.67)"/><polygon class="cls-3" points="440.26 218.88 458.95 226.19 454.17 247.32 429.07 237.49 440.26 218.88"/><polygon class="cls-3" points="484.4 250.12 492.45 268.51 474.13 280.07 463.33 255.38 484.4 250.12"/><polygon class="cls-3" points="492.01 302.98 484.69 321.67 463.57 316.89 473.39 291.79 492.01 302.98"/><polygon class="cls-3" points="460.67 344.75 442.28 352.79 430.72 334.48 455.42 323.68 460.67 344.75"/><polygon class="cls-3" points="388.04 227.5 406.43 219.45 417.99 237.77 393.29 248.57 388.04 227.5"/><polygon class="cls-3" points="356.06 270.9 363.38 252.21 384.5 256.99 374.68 282.09 356.06 270.9"/><polygon class="cls-3" points="363.58 323.17 355.53 304.78 373.85 293.22 384.65 317.92 363.58 323.17"/><polygon class="cls-3" points="408.01 355.28 389.32 347.96 394.1 326.84 419.2 336.66 408.01 355.28"/><path class="cls-4" d="M450.32,246.83a55.41,55.41,0,1,0,31.4,71.8A55.41,55.41,0,0,0,450.32,246.83ZM421.8,323.42a26.66,26.66,0,1,1,34.55-15.11A26.67,26.67,0,0,1,421.8,323.42Z" transform="translate(-7.53 -11.67)"/><path class="cls-3" d="M211.75,11.67A24.75,24.75,0,0,0,187,36.43V78.91h49.52V36.43A24.75,24.75,0,0,0,211.75,11.67Z" transform="translate(-7.53 -11.67)"/><path class="cls-5" d="M108.48,396.69l94.35-215.83-41.21-25L77,347.88S71.6,384.76,108.48,396.69Z" transform="translate(-7.53 -11.67)"/><path class="cls-5" d="M314.54,396.69,221.27,185.2l46.64-20.61,78.09,180S354.67,385.84,314.54,396.69Z" transform="translate(-7.53 -11.67)"/><path class="cls-4" d="M210.69,58.3a70.9,70.9,0,1,0,70.9,70.9A70.9,70.9,0,0,0,210.69,58.3Zm0,112.38a41.48,41.48,0,1,1,41.47-41.48A41.48,41.48,0,0,1,210.69,170.68Z" transform="translate(-7.53 -11.67)"/><circle class="cls-2" cx="203.87" cy="235.92" r="12.47"/><circle class="cls-3" cx="203.87" cy="300.7" r="12.47"/><circle class="cls-2" cx="341.92" cy="267.78" r="12.47"/><circle class="cls-2" cx="64.75" cy="267.78" r="12.47"/><polygon class="cls-3" points="65.29 280.25 181.75 280.25 181.75 255.3 64.75 255.3 64.75 280.25 65.29 280.25"/><polygon class="cls-3" points="192.09 280.25 342.1 280.25 342.1 255.3 191.39 255.3 191.39 280.25 192.09 280.25"/><polygon class="cls-3" points="216.34 300.39 216.34 234.31 191.39 234.31 191.39 300.7 216.34 300.7 216.34 300.39"/><g id="Background"><path class="cls-6" d="M504.47,301.63C488.47,331,404.16,465,248.24,369.78,141.52,304.59,57,286.21,7.53,281.78c13,126.5,120,225.16,249.9,225.16C380.53,506.87,482.92,418.39,504.47,301.63Z" transform="translate(-7.53 -11.67)"/></g></svg>