<svg xmlns="http://www.w3.org/2000/svg" viewBox="0 0 496.94 495.28"><defs><style>.cls-1{fill:#808285;}.cls-2{fill:#414042;}.cls-3{fill:#58595b;}.cls-4{fill:#bcbec0;}.cls-5{fill:#f89521;}</style></defs><g id="Helmet"><path class="cls-1" d="M93.68,214.48V295H108V202.3s23.48-14.69,45.7,0V295h15.19V215.61s56.76,23,56.76,91.41c0,0,27.87,21.47-18.84,31.07s-146,2.26-154.06,0-40.94-8.83-16.7-31.82C36.05,306.27,26.76,240.22,93.68,214.48Z" transform="translate(-7.53 -9.09)"/></g><g id="Settings"><polygon class="cls-2" points="294.29 267.66 314.36 267.66 317.61 289.07 290.66 289.07 294.29 267.66"/><polygon class="cls-2" points="346.79 280.67 360.98 294.86 348.14 312.3 329.08 293.24 346.79 280.67"/><polygon class="cls-2" points="373.13 327.11 373.13 347.18 351.72 350.43 351.72 323.48 373.13 327.11"/><polygon class="cls-2" points="359.18 377.43 344.99 391.63 327.55 378.79 346.61 359.73 359.18 377.43"/><polygon class="cls-2" points="248.81 294.72 263 280.53 280.44 293.37 261.38 312.43 248.81 294.72"/><polygon class="cls-2" points="234.85 346.8 234.85 326.73 256.26 323.48 256.26 350.43 234.85 346.8"/><polygon class="cls-2" points="260.9 392.73 246.71 378.54 259.55 361.1 278.61 380.16 260.9 392.73"/><polygon class="cls-2" points="313.98 406.43 293.91 406.43 290.66 385.02 317.61 385.02 313.98 406.43"/><path class="cls-3" d="M310.11,291a55.42,55.42,0,1,0,55.42,55.42A55.41,55.41,0,0,0,310.11,291Zm1.37,81.73a26.67,26.67,0,1,1,26.66-26.67A26.67,26.67,0,0,1,311.48,372.72Z" transform="translate(-7.53 -9.09)"/><polygon class="cls-2" points="440.26 218.88 458.95 226.19 454.17 247.32 429.07 237.49 440.26 218.88"/><polygon class="cls-2" points="484.4 250.12 492.45 268.51 474.13 280.07 463.33 255.38 484.4 250.12"/><polygon class="cls-2" points="492.01 302.98 484.69 321.67 463.57 316.89 473.39 291.79 492.01 302.98"/><polygon class="cls-2" points="460.67 344.75 442.28 352.79 430.72 334.48 455.42 323.68 460.67 344.75"/><polygon class="cls-2" points="388.04 227.5 406.43 219.45 417.99 237.77 393.29 248.57 388.04 227.5"/><polygon class="cls-2" points="356.06 270.9 363.38 252.21 384.5 256.99 374.68 282.09 356.06 270.9"/><polygon class="cls-2" points="363.58 323.17 355.53 304.78 373.85 293.22 384.65 317.92 363.58 323.17"/><polygon class="cls-2" points="408.01 355.28 389.32 347.96 394.1 326.84 419.2 336.66 408.01 355.28"/><path class="cls-3" d="M450.32,244.25a55.41,55.41,0,1,0,31.4,71.8A55.43,55.43,0,0,0,450.32,244.25Zm-28.52,76.6a26.67,26.67,0,1,1,34.55-15.11A26.67,26.67,0,0,1,421.8,320.85Z" transform="translate(-7.53 -9.09)"/></g><g id="Tool"><path class="cls-2" d="M211.75,9.09A24.76,24.76,0,0,0,187,33.86V76.34h49.52V33.86A24.76,24.76,0,0,0,211.75,9.09Z" transform="translate(-7.53 -9.09)"/><path class="cls-4" d="M108.48,394.11l94.35-215.83-41.21-24.94L77,345.31S71.6,382.18,108.48,394.11Z" transform="translate(-7.53 -9.09)"/><path class="cls-4" d="M314.54,394.11,221.27,182.62,267.91,162l78.09,180S354.67,383.27,314.54,394.11Z" transform="translate(-7.53 -9.09)"/><path class="cls-1" d="M210.69,55.73a70.9,70.9,0,1,0,70.9,70.9A70.9,70.9,0,0,0,210.69,55.73Zm0,112.37a41.48,41.48,0,1,1,41.47-41.47A41.48,41.48,0,0,1,210.69,168.1Z" transform="translate(-7.53 -9.09)"/><circle class="cls-2" cx="203.87" cy="235.92" r="12.47"/><circle class="cls-2" cx="203.87" cy="300.7" r="12.47"/><circle class="cls-2" cx="341.92" cy="267.78" r="12.47"/><circle class="cls-2" cx="64.75" cy="267.78" r="12.47"/><polygon class="cls-2" points="65.29 280.25 181.75 280.25 181.75 255.3 64.75 255.3 64.75 280.25 65.29 280.25"/><polygon class="cls-2" points="192.09 280.25 342.1 280.25 342.1 255.3 191.39 255.3 191.39 280.25 192.09 280.25"/><polygon class="cls-2" points="216.34 300.39 216.34 234.31 191.39 234.31 191.39 300.7 216.34 300.7 216.34 300.39"/></g><g id="Background"><g id="Background-2" data-name="Background"><path class="cls-5" d="M504.47,299.06c-16,29.33-100.31,163.4-256.23,68.15C141.52,302,57,283.64,7.53,279.21c13,126.5,120,225.16,249.9,225.16C380.53,504.3,482.92,415.82,504.47,299.06Z" transform="translate(-7.53 -9.09)"/></g></g></svg>