<svg id="Layer_1" data-name="Layer 1" xmlns="http://www.w3.org/2000/svg" viewBox="0 0 497.78 476.31"><defs><style>.cls-1{fill:#0e7f40;}.cls-2{fill:#b4daa6;}.cls-3{fill:#36865b;}.cls-4{fill:#2bb673;}.cls-5{fill:#006838;}.cls-6{fill:#559462;}.cls-7{fill:#f7de02;}</style></defs><path class="cls-1" d="M248.47,84.49A126.4,126.4,0,1,0,374.86,210.88,126.39,126.39,0,0,0,248.47,84.49Zm-.08,226A99.56,99.56,0,1,1,348,210.88,99.56,99.56,0,0,1,248.39,310.44Z" transform="translate(-7.11 -18.89)"/><path class="cls-2" d="M254.13,153.19c3-21.88,6.86,10.94,6.86-37.58V67.09s-9.6,6.07-9.6-10.28V43.12a12.37,12.37,0,1,0-6.24.19v13.5c0,16.35-10.29,10.28-10.29,10.28v48.52c0,48.52,4.16,15.7,7.35,37.58s-15.08,30-15.08,30H268.2S251.15,175.07,254.13,153.19Z" transform="translate(-7.11 -18.89)"/><path class="cls-2" d="M304,189.51c20.48-8.26-6.11,11.38,36-12.66l42.14-24s-10-5.33,4.18-13.43l11.9-6.78a12.37,12.37,0,1,0-3.26-5.33L383.29,134c-14.2,8.11-14-3.83-14-3.83l-42.15,24c-42.14,24-11.57,11.4-29,25s-33.51,1.74-33.51,1.74l10.53,18.46L285,216.57S283.54,197.76,304,189.51Z" transform="translate(-7.11 -18.89)"/><path class="cls-2" d="M297.46,248.44c17.67,13.24-12.9.67,29.5,24.27l42.39,23.59S368.72,285,383,292.92l12,6.66a12.37,12.37,0,1,0,2.87-5.55L386,287.46c-14.28-7.95-4-14-4-14l-42.39-23.59c-42.4-23.6-15.74-4-36.42-11.85s-18.84-27.76-18.84-27.76l-10.34,18.57-9.64,17.32S279.79,235.19,297.46,248.44Z" transform="translate(-7.11 -18.89)"/><path class="cls-2" d="M190.06,237.74c-20.32,8.19,6.06-11.29-35.76,12.56l-41.82,23.85s9.94,5.29-4.15,13.33l-11.8,6.73a12.28,12.28,0,1,0,3.23,5.29l11.64-6.63c14.09-8,13.92,3.8,13.92,3.8l41.82-23.85C209,249,178.62,261.52,195.91,248s33.25-1.73,33.25-1.73L218.71,228,209,210.88S210.38,229.55,190.06,237.74Z" transform="translate(-7.11 -18.89)"/><path class="cls-2" d="M196.45,179.54c-17.46-13.24,12.8-.6-29.13-24.25l-41.93-23.65s.56,11.25-13.57,3.28L100,128.25a12.27,12.27,0,1,0-2.88,5.49l11.66,6.58c14.14,8,3.88,13.9,3.88,13.9l41.93,23.66c41.94,23.65,15.6,4.05,36.07,12s18.54,27.64,18.54,27.64l10.36-18.36L229.21,182S213.91,192.78,196.45,179.54Z" transform="translate(-7.11 -18.89)"/><path class="cls-2" d="M241.43,274.58c-2.56,21.93-7.07-10.81-6.14,37.7l.94,48.51s9.48-6.25,9.8,10.1l.26,13.68a12.38,12.38,0,1,0,6.24-.31l-.26-13.49c-.31-16.35,10.09-10.49,10.09-10.49l-.94-48.5c-.94-48.51-4.47-15.62-8.08-37.43s14.5-30.26,14.5-30.26l-21.24.41-19.82.39S244,252.64,241.43,274.58Z" transform="translate(-7.11 -18.89)"/><path class="cls-2" d="M246.48,178.14c-20.45,0-37,15.91-37,35.53s16.58,35.52,37,35.52,37-15.9,37-35.52S266.92,178.14,246.48,178.14Zm.83,42.31a6.78,6.78,0,1,1,6.78-6.78A6.78,6.78,0,0,1,247.31,220.45Z" transform="translate(-7.11 -18.89)"/><path class="cls-3" d="M380.16,382.3H365.75S361.33,291.45,411,221.39c0,0,10.4-6.69,8.76,5.49C419.77,226.88,382.78,271.48,380.16,382.3Z" transform="translate(-7.11 -18.89)"/><path class="cls-3" d="M345.62,382.3s-8.18-101-26-115.07c0,0-4.74-15.55,10-7.82,0,0,25.9,57.09,29.58,122.89" transform="translate(-7.11 -18.89)"/><circle class="cls-4" cx="310.19" cy="250.63" r="8.51"/><path class="cls-5" d="M411,395.07c-7.29-18.27-27.76-31.43-51.89-31.43s-44.59,13.16-51.89,31.43Z" transform="translate(-7.11 -18.89)"/><path class="cls-5" d="M323,255s17.24-23.35,66.78-8.73C389.76,246.24,358.33,197.35,323,255Z" transform="translate(-7.11 -18.89)"/><path class="cls-5" d="M320.14,251.79s4.8-29.46,45.61-39.72C365.75,212.07,321.45,190,320.14,251.79Z" transform="translate(-7.11 -18.89)"/><path class="cls-5" d="M318.57,250.47l-20.18-16.36s-2.85-25,20.91-12.58Z" transform="translate(-7.11 -18.89)"/><path class="cls-5" d="M317.3,253s-40.81-16.15-76.82,12.22C240.48,265.26,272.34,204.59,317.3,253Z" transform="translate(-7.11 -18.89)"/><path class="cls-5" d="M317.3,258.35s-39.72,10.48-57.62,43.87C259.68,302.22,251.17,236.31,317.3,258.35Z" transform="translate(-7.11 -18.89)"/><path class="cls-5" d="M425.34,219.56s48.78,12.31,63.84,58.47C489.18,278,490.49,195.46,425.34,219.56Z" transform="translate(-7.11 -18.89)"/><path class="cls-5" d="M421.74,212.88s64.16-18.66,83.15,9.82C504.89,222.7,480,142.82,421.74,212.88Z" transform="translate(-7.11 -18.89)"/><path class="cls-5" d="M420,208.24l3.6-41.52s21.61-7.86,24.22,12.44Z" transform="translate(-7.11 -18.89)"/><path class="cls-5" d="M413.22,213.21s-34.37-30.12-77.59-15.06C335.63,198.15,382.12,133.65,413.22,213.21Z" transform="translate(-7.11 -18.89)"/><path class="cls-5" d="M415.52,202.08s-19-47.47-47.8-51.07C367.72,151,427.63,131,415.52,202.08Z" transform="translate(-7.11 -18.89)"/><path class="cls-5" d="M341.49,345.08l.58,4.35s4.12-1.09,4.61-2.81C346.68,346.62,342.93,347.14,341.49,345.08Z" transform="translate(-7.11 -18.89)"/><path class="cls-5" d="M350.62,324.6l-.92-3.9a6.72,6.72,0,0,1-4.24,3.33s3.53,2,5.16.9Z" transform="translate(-7.11 -18.89)"/><path class="cls-5" d="M334.64,305l-1.13-4.9s3.52,2.12,5.89,1.3A7.11,7.11,0,0,1,334.64,305Z" transform="translate(-7.11 -18.89)"/><path class="cls-5" d="M333.7,269.52l1.57,4.1s-2.91,2.2-5.28,1.05C330,274.67,333.74,272.87,333.7,269.52Z" transform="translate(-7.11 -18.89)"/><path class="cls-5" d="M381.92,350.91l.87-8.71s-6.41,5.75-10.49,1.09C372.3,343.29,376.25,351.33,381.92,350.91Z" transform="translate(-7.11 -18.89)"/><path class="cls-5" d="M375,302.51l2.54-9.48s1.95,6.81,6.54,7C384.09,300.06,381.2,304.3,375,302.51Z" transform="translate(-7.11 -18.89)"/><path class="cls-5" d="M397.63,272.26l3.29-9.14s-4,4.11-8.49,2.14A7.86,7.86,0,0,0,397.63,272.26Z" transform="translate(-7.11 -18.89)"/><path class="cls-5" d="M400.24,238.31l4.19-7s.75,6.12,4.1,7C408.53,238.31,407.88,240.71,400.24,238.31Z" transform="translate(-7.11 -18.89)"/><path class="cls-5" d="M43.51,269.38s-6.18-5.09,6.55-4.73L23.88,244.29l2.91,33.45S31.51,267.2,37,274.11s10.18,20.36,42.91,28.72c0,0,10,3.28,11.86,9.1,0,0,2.4-6.33,9.06-7.31,0,0,26.72.4,48.17-33.42,0,0,3.28-3.28,4.73,4l4.37-30.91-25.82,19.27s10.18-1.82,7.63,4.73S121.34,285.38,101,282.11V204.65h18.55s12-6.55,0-14.55H100.24V171.19H82.06v20H59.88s-10.18,4.37,0,13.46H82.06v77.79S59.15,288.29,43.51,269.38Z" transform="translate(-7.11 -18.89)"/><path class="cls-6" d="M91,127.92a22.73,22.73,0,1,0,22.73,22.73A22.73,22.73,0,0,0,91,127.92Zm0,36.94a14.22,14.22,0,1,1,14.22-14.21A14.22,14.22,0,0,1,91,164.86Z" transform="translate(-7.11 -18.89)"/><g id="Background"><path class="cls-7" d="M504.05,289.89c-16,29.33-100.31,163.4-256.23,68.15C141.1,292.85,56.6,274.47,7.11,270c13,126.5,120,225.16,249.9,225.16C380.11,495.13,482.5,406.65,504.05,289.89Z" transform="translate(-7.11 -18.89)"/></g></svg>