<svg xmlns="http://www.w3.org/2000/svg" viewBox="0 0 497.78 476.31"><defs><style>.cls-1{fill:#58595b;}.cls-2{fill:#bcbec0;}.cls-3{fill:#808285;}.cls-4{fill:#a7a9ac;}.cls-5{fill:#414042;}.cls-6{fill:#939598;}.cls-7{fill:#f89521;}</style></defs><g id="Wheel"><path class="cls-1" d="M248.89,89.33a126.4,126.4,0,1,0,126.39,126.4A126.4,126.4,0,0,0,248.89,89.33Zm-.07,226a99.56,99.56,0,1,1,99.55-99.56A99.55,99.55,0,0,1,248.82,315.28Z" transform="translate(-7.53 -23.73)"/><path class="cls-2" d="M254.55,158c3-21.88,6.86,10.94,6.86-37.58V71.93s-9.59,6.07-9.59-10.28V48a12.37,12.37,0,1,0-6.25.19v13.5c0,16.35-10.29,10.28-10.29,10.28v48.52c0,48.52,4.17,15.7,7.36,37.58s-15.09,30-15.09,30h41.07S251.57,179.91,254.55,158Z" transform="translate(-7.53 -23.73)"/><path class="cls-2" d="M304.44,194.35c20.48-8.26-6.11,11.38,36-12.66l42.15-24s-10-5.33,4.18-13.43l11.89-6.78a12.37,12.37,0,1,0-3.26-5.33l-11.73,6.69c-14.2,8.1-14-3.84-14-3.84l-42.14,24c-42.15,24-11.58,11.4-29,25S265,185.74,265,185.74l10.53,18.46,9.82,17.22S284,202.6,304.44,194.35Z" transform="translate(-7.53 -23.73)"/><path class="cls-2" d="M297.88,253.28c17.67,13.24-12.89.67,29.5,24.27l42.39,23.59s-.63-11.33,13.66-3.38l12,6.66a12.37,12.37,0,1,0,2.87-5.55l-11.79-6.57c-14.29-7.95-4-14-4-14l-42.39-23.59c-42.4-23.6-15.74-4-36.41-11.85s-18.85-27.76-18.85-27.76l-10.34,18.57L264.86,251S280.21,240,297.88,253.28Z" transform="translate(-7.53 -23.73)"/><path class="cls-2" d="M190.48,242.58c-20.32,8.19,6.06-11.29-35.76,12.56L112.9,279s9.94,5.29-4.15,13.33L97,299.05a12.26,12.26,0,1,0,3.24,5.29l11.63-6.63c14.1-8,13.92,3.81,13.92,3.81l41.82-23.86c41.82-23.85,11.49-11.3,28.78-24.81s33.24-1.73,33.24-1.73l-10.44-18.31-9.75-17.08S210.8,234.39,190.48,242.58Z" transform="translate(-7.53 -23.73)"/><path class="cls-2" d="M196.88,184.38c-17.46-13.24,12.8-.6-29.14-24.25l-41.93-23.65s.56,11.25-13.57,3.28l-11.83-6.67a12.27,12.27,0,1,0-2.88,5.49l11.67,6.58c14.13,8,3.87,13.91,3.87,13.91L155,182.72c41.93,23.65,15.59,4.05,36.06,12s18.55,27.64,18.55,27.64L220,204l9.66-17.13S214.34,197.62,196.88,184.38Z" transform="translate(-7.53 -23.73)"/><path class="cls-2" d="M241.85,279.42c-2.55,21.93-7.07-10.81-6.13,37.7l.94,48.51s9.47-6.25,9.79,10.1l.26,13.69a12.37,12.37,0,1,0,6.25-.31l-.27-13.5c-.31-16.35,10.09-10.48,10.09-10.48l-.94-48.51c-.94-48.51-4.47-15.62-8.08-37.43s14.5-30.26,14.5-30.26l-21.24.42-19.82.38S244.4,257.48,241.85,279.42Z" transform="translate(-7.53 -23.73)"/><path class="cls-2" d="M246.9,183c-20.45,0-37,15.91-37,35.53S226.45,254,246.9,254s37-15.91,37-35.53S267.35,183,246.9,183Zm.83,42.31a6.78,6.78,0,1,1,6.78-6.78A6.79,6.79,0,0,1,247.73,225.29Z" transform="translate(-7.53 -23.73)"/></g><g id="Coconut"><path class="cls-3" d="M380.58,387.14h-14.4s-4.42-90.85,45.26-160.91c0,0,10.39-6.69,8.75,5.5C420.19,231.73,383.2,276.32,380.58,387.14Z" transform="translate(-7.53 -23.73)"/><path class="cls-3" d="M346,387.14s-8.18-101-26-115.07c0,0-4.75-15.55,9.94-7.82,0,0,25.9,57.09,29.59,122.89" transform="translate(-7.53 -23.73)"/><circle class="cls-4" cx="310.19" cy="250.63" r="8.51"/><path class="cls-5" d="M411.44,399.91c-7.3-18.27-27.77-31.43-51.89-31.43s-44.6,13.16-51.89,31.43Z" transform="translate(-7.53 -23.73)"/><path class="cls-5" d="M323.4,259.81s17.24-23.35,66.78-8.73C390.18,251.08,358.76,202.19,323.4,259.81Z" transform="translate(-7.53 -23.73)"/><path class="cls-5" d="M320.56,256.63s4.8-29.46,45.62-39.72C366.18,216.91,321.87,194.87,320.56,256.63Z" transform="translate(-7.53 -23.73)"/><path class="cls-5" d="M319,255.31,298.81,239s-2.84-25,20.91-12.59Z" transform="translate(-7.53 -23.73)"/><path class="cls-5" d="M317.72,257.88s-40.81-16.15-76.82,12.22C240.9,270.1,272.76,209.43,317.72,257.88Z" transform="translate(-7.53 -23.73)"/><path class="cls-5" d="M317.72,263.19S278,273.67,260.1,307.06C260.1,307.06,251.59,241.15,317.72,263.19Z" transform="translate(-7.53 -23.73)"/><path class="cls-1" d="M425.76,224.4s48.78,12.31,63.84,58.47C489.6,282.87,490.91,200.3,425.76,224.4Z" transform="translate(-7.53 -23.73)"/><path class="cls-1" d="M422.16,217.72s64.17-18.66,83.15,9.82C505.31,227.54,480.43,147.66,422.16,217.72Z" transform="translate(-7.53 -23.73)"/><path class="cls-1" d="M420.37,213.09l3.6-41.53S445.58,163.7,448.2,184Z" transform="translate(-7.53 -23.73)"/><path class="cls-1" d="M413.65,218.05S379.27,187.93,336.06,203C336.06,203,382.55,138.5,413.65,218.05Z" transform="translate(-7.53 -23.73)"/><path class="cls-1" d="M415.94,206.92s-19-47.47-47.8-51.07C368.14,155.85,428.05,135.88,415.94,206.92Z" transform="translate(-7.53 -23.73)"/><path class="cls-1" d="M341.92,349.92l.57,4.35s4.13-1.09,4.62-2.81C347.11,351.46,343.35,352,341.92,349.92Z" transform="translate(-7.53 -23.73)"/><path class="cls-1" d="M351,329.44l-.92-3.9a6.72,6.72,0,0,1-4.24,3.33s3.53,2.05,5.16.9Z" transform="translate(-7.53 -23.73)"/><path class="cls-1" d="M335.06,309.8l-1.12-4.89s3.51,2.11,5.88,1.29A7.11,7.11,0,0,1,335.06,309.8Z" transform="translate(-7.53 -23.73)"/><path class="cls-1" d="M334.13,274.36l1.56,4.11s-2.91,2.19-5.28,1C330.41,279.52,334.16,277.72,334.13,274.36Z" transform="translate(-7.53 -23.73)"/><path class="cls-1" d="M382.34,355.75l.87-8.71s-6.41,5.75-10.49,1.09C372.72,348.13,376.67,356.17,382.34,355.75Z" transform="translate(-7.53 -23.73)"/><path class="cls-1" d="M375.43,307.35l2.54-9.48s2,6.81,6.54,7C384.51,304.91,381.62,309.14,375.43,307.35Z" transform="translate(-7.53 -23.73)"/><path class="cls-1" d="M398.05,277.1l3.29-9.14s-4,4.12-8.49,2.14A7.85,7.85,0,0,0,398.05,277.1Z" transform="translate(-7.53 -23.73)"/><path class="cls-1" d="M400.66,243.15l4.19-7s.75,6.12,4.1,7C409,243.15,408.3,245.55,400.66,243.15Z" transform="translate(-7.53 -23.73)"/></g><g id="Anchor"><path class="cls-5" d="M43.94,274.22s-6.19-5.09,6.54-4.73L24.3,249.13l2.91,33.45S31.94,272,37.39,279s10.18,20.36,42.91,28.73c0,0,10,3.27,11.86,9.09,0,0,2.41-6.33,9.06-7.31,0,0,26.72.4,48.18-33.42,0,0,3.27-3.28,4.72,4l4.37-30.91L132.67,268.4s10.18-1.82,7.63,4.73S121.76,290.22,101.39,287V209.49h18.55s12-6.55,0-14.55H100.67V176H82.48v20H60.3s-10.18,4.37,0,13.46H82.48v77.79S59.57,293.13,43.94,274.22Z" transform="translate(-7.53 -23.73)"/><path class="cls-6" d="M91.39,132.76a22.73,22.73,0,1,0,22.73,22.73A22.72,22.72,0,0,0,91.39,132.76Zm0,36.94a14.22,14.22,0,1,1,14.22-14.21A14.21,14.21,0,0,1,91.39,169.7Z" transform="translate(-7.53 -23.73)"/></g><g id="Background"><g id="Background-2" data-name="Background"><path class="cls-7" d="M504.47,294.73c-16,29.33-100.31,163.4-256.23,68.15C141.52,297.69,57,279.31,7.53,274.88c13,126.5,120,225.16,249.9,225.16C380.53,500,482.92,411.49,504.47,294.73Z" transform="translate(-7.53 -23.73)"/></g></g></svg>