<?xml version="1.0" encoding="utf-8"?>
<!-- Generator: Adobe Illustrator 25.4.1, SVG Export Plug-In . SVG Version: 6.00 Build 0)  -->
<svg version="1.1" id="Layer_1" xmlns="http://www.w3.org/2000/svg" xmlns:xlink="http://www.w3.org/1999/xlink" x="0px" y="0px"
	 viewBox="0 0 496.9 497" style="enable-background:new 0 0 496.9 497;" xml:space="preserve">
<style type="text/css">
	.st0{fill:#104734;}
	.st1{fill:#399879;}
	.st2{fill:#8DC63F;}
	.st3{fill:#36865B;}
	.st4{fill:#939598;}
	.st5{fill:#939598;stroke:#6D6E71;stroke-miterlimit:10;}
	.st6{fill:#00A14B;}
	.st7{fill:#8CAF8C;}
	.st8{fill:#00A651;}
	.st9{fill:#79A285;}
	.st10{fill:#559462;}
	.st11{fill:#2BB673;}
	.st12{fill:#58595B;}
	.st13{fill:#F7DE02;}
</style>
<polyline class="st0" points="485.7,275.9 400.8,372.3 137.4,324.3 76.7,228.5 62.8,157.6 129.2,157.6 244,40.3 264,95.7 
	328.5,105.9 383.3,177.6 448.2,171 485.7,275.9 "/>
<polygon class="st1" points="34.3,286 64.8,160.2 92.2,174.9 97.7,218 131,92.6 241.5,40.3 232.5,111.2 254.8,99.2 320.9,115.7 
	369.8,220.5 387.2,192.8 439.3,266 435.3,198.5 469.2,306.9 358.6,386.8 "/>
<polygon class="st2" points="178.9,237.5 182.8,335.2 157.1,335.5 155,232.2 189.1,204.2 209.7,202.5 "/>
<polygon class="st2" points="264.3,204.5 287.6,231.8 287.6,358.2 311.8,358.2 311.8,228.5 279.6,204.5 "/>
<polygon class="st0" points="204.4,196.9 170.6,241.5 176.1,345.1 325.6,368 292.3,227.2 257.7,192.8 "/>
<polygon class="st3" points="281,193.6 281,206.3 189.1,206.3 189.1,192.8 "/>
<rect x="253" y="323" class="st3" width="156.3" height="17.1"/>
<path class="st4" d="M408.5,327.4h5.9c0,0,1.1,4.3,5.3,4.2c0,0,3-0.4,4.3-2.6c0.1-0.1,0.2-0.1,0.3-0.1c0.1,0,0.1,0.1,0.1,0.2
	c-0.3,1.6-1.2,3.8-3.6,4.5c-2.9,1-6-0.6-7-3.4c0-0.1-0.1-0.2-0.1-0.2h-5.2L408.5,327.4z"/>
<path class="st5" d="M350.3,260.2"/>
<path class="st0" d="M316.5,359.6h26.2c0,0-4.4-4.5-3.3-5.7s3.9-2.8,0-5.5c-2.9-2-6.3-3.1-9.8-3.2c-1.4,0-8.7,2.2-8.7,2.2
	s2.7,2.2,0,2.1s-6.6,0-6.6,0v3.4l1.9,3.7L316.5,359.6z"/>
<path class="st0" d="M371.2,358.2c0,0,6.8-9.1,10.5-10.4c3.6-1.3,14.5-2.7,14.5-2.7l3.2,7.9l6.8,0.1c0,0-1.8,2.8,0-1.5
	c1.1-2.9,1.9-5.8,2.3-8.9l13.1-2.6l1,2.6h7.7l-6.1,6.4v4.9l2.4,1.3l-3.5,2.8L371.2,358.2z"/>
<path class="st6" d="M278.1,256.5l-11.5-12.7l-7.6-6.2l3.8-7.2l6.5-5.9l11.5,4.9l-1.5-7.6h13l-5.8-3.4l-1-4.4l6.8-8.5
	c0,0,4.5-2.8,5.6-3.6c1.1-0.7,8.9-2.2,8.9-2.2l10.8-0.5l3.4,3.2l8.6-5.9l11.7-3.6l6.2,3.6l6.8,6.4l5.5,1.3l9.2-5h14.3l0.2,3l-5.3,9
	l3.5,4.8l5,1.5c0,0,1.8-0.8,5.2,2l3.5,2.7l-0.4,2.3l1.4,4.4l4.4,1.8l1.7,4.8c0,0,4.4,4.6,2.7,6.6c-1.8,2-11.7,9.5-11.7,9.5l-17,23
	l-16.7,6l-50.7,5.6L275,268L278.1,256.5z"/>
<rect x="251.8" y="237.5" class="st3" width="157.5" height="12.5"/>
<polygon class="st7" points="254.8,249 263.1,323 397.7,323 406.1,249 "/>
<circle class="st8" cx="364.2" cy="329.6" r="23"/>
<circle class="st9" cx="364.2" cy="329.6" r="13.9"/>
<circle class="st10" cx="364.2" cy="329.6" r="5.6"/>
<circle class="st8" cx="297.9" cy="329.9" r="23"/>
<circle class="st9" cx="297.9" cy="329.9" r="13.9"/>
<circle class="st10" cx="297.9" cy="329.9" r="5.6"/>
<rect x="256" y="352.6" class="st0" width="176.1" height="7"/>
<path class="st11" d="M196.6,178.3c0,0,31.2,9.1,31,40.4c-0.1,17.6-33.2,31.2-33.2,31.2s-21,5.4-21,32.8l8.5,3.3
	c0,0-6.7-20.8,16.2-30.4c23-9.6,35.5-17.3,37.2-39.1c2.4-30.9-28.5-47.2-38.7-45.4C191.4,172,196.6,178.3,196.6,178.3z"/>
<polygon class="st0" points="148.4,211.9 137.4,248.8 163.9,255.6 174.6,219.3 "/>
<polygon class="st9" points="150.5,220.5 141.9,245.3 147.1,247.1 156,221.7 "/>
<path class="st3" d="M170,88.7l-7.2,19.5l14.4,17.9l-8.9,26.9l23.1,7.3l9.4-27.2l21.7-7l4.8-19.6c0,0-3.1-3-4.7-1.1
	s-5.2,17.1-5.2,17.1l-15.2,4.2l-5.4,1.7l-3.2,10.3l-12.7-4.7l2.2-8.7l-14.4-18.1l6-15.5C174.7,91.7,175.6,86.2,170,88.7z"/>
<polygon class="st0" points="168.5,103.4 219.1,119.3 222.6,108 171.9,92.6 "/>
<polygon class="st0" points="143.2,249 126,305.4 136.7,318.1 157.1,252.8 "/>
<polygon class="st10" points="137.4,259.6 157.3,261.6 159.1,256.5 138.7,254 "/>
<polygon class="st10" points="155,267 153.1,272.7 134.3,271.5 136,266 "/>
<polygon class="st12" points="151.5,277.5 149.8,283.5 131,281.9 132.7,275.9 "/>
<polygon class="st12" points="185.7,180.7 196.6,183.3 201,168.6 190,166.4 "/>
<polygon class="st0" points="164.4,150.1 196.6,160.2 177.4,221.7 144.7,211 "/>
<polygon class="st9" points="167.9,160.2 152.2,207 157.4,209 173.4,161.8 "/>
<polygon class="st3" points="143.5,296.2 170.6,280.7 204.4,289.8 219.1,309.8 219.1,319.4 147.4,319.4 138.7,311.6 "/>
<path class="st13" d="M492,258.8c-15.6,28.7-98.1,159.8-250.6,66.6C137,261.7,54.4,243.7,6,239.4
	c12.8,123.7,117.3,220.2,244.4,220.2C370.7,459.6,470.8,373.1,492,258.8"/>
</svg>
