<?xml version="1.0" encoding="utf-8"?>
<!-- Generator: Adobe Illustrator 25.4.1, SVG Export Plug-In . SVG Version: 6.00 Build 0)  -->
<svg version="1.1" id="Layer_1" xmlns="http://www.w3.org/2000/svg" xmlns:xlink="http://www.w3.org/1999/xlink" x="0px" y="0px"
	 viewBox="0 0 495.2 496.4" style="enable-background:new 0 0 495.2 496.4;" xml:space="preserve">
<style type="text/css">
	.st0{fill:#848689;}
	.st1{fill:#C8CFD3;}
	.st2{fill:#E4E5E6;}
	.st3{fill:#888A8C;}
	.st4{fill:#5F6062;}
	.st5{fill:#939598;}
	.st6{fill:#939598;stroke:#6D6E71;stroke-miterlimit:10;}
	.st7{fill:#3E3E3F;}
	.st8{fill:#C4C6C8;}
	.st9{fill:#D5D7D8;}
	.st10{fill:#797A7D;}
	.st11{fill:#333132;}
	.st12{fill:#515254;}
	.st13{fill:#ABADB0;}
	.st14{fill:#414E56;}
	.st15{fill:#58595B;}
	.st16{fill:#F89522;}
</style>
<polyline class="st0" points="485.7,274.8 400.3,371.7 135.4,323.4 74.4,227 60.3,155.7 127.1,155.7 242.6,37.7 262.7,93.5 
	327.7,103.8 382.8,175.8 448.1,169.2 485.7,274.8 "/>
<polygon class="st1" points="31.7,284.9 62.3,158.3 89.9,173.1 95.5,216.5 129,90.3 240.1,37.7 231.1,109 253.5,97 320,113.6 
	369.1,219 386.7,191.1 439,264.8 435,196.9 469.2,305.9 357.9,386.3 "/>
<polygon class="st2" points="177.1,236.1 181,334.3 155.2,334.6 153.1,230.7 187.4,202.6 208.1,200.9 "/>
<polygon class="st2" points="263.1,203 286.5,230.4 286.5,357.5 310.8,357.5 310.8,227 278.5,203 "/>
<polygon class="st3" points="202.8,195.3 168.8,240.1 174.3,344.3 324.7,367.4 291.2,225.7 256.4,191.1 "/>
<polygon class="st4" points="279.8,192 279.8,204.7 187.4,204.7 187.4,191.1 "/>
<rect x="251.7" y="322.2" class="st4" width="157.2" height="17.2"/>
<path class="st5" d="M408.1,326.5h5.9c0,0,1.1,4.4,5.3,4.3c0,0,3-0.4,4.4-2.7c0.1-0.1,0.2-0.1,0.3-0.1c0.1,0,0.1,0.1,0.1,0.2
	c-0.3,1.6-1.2,3.9-3.6,4.5c-2.9,1-6-0.6-7-3.5c0-0.1-0.1-0.2-0.1-0.2h-5.2L408.1,326.5z"/>
<path class="st6" d="M349.5,258.9"/>
<path class="st3" d="M315.6,358.9h26.4c0,0-4.4-4.5-3.3-5.8c1.1-1.2,3.9-2.8,0-5.5c-2.9-2-6.3-3.1-9.8-3.3c-1.4,0-8.7,2.3-8.7,2.3
	s2.7,2.3,0,2.1s-6.6,0-6.6,0v3.4l1.9,3.7L315.6,358.9z"/>
<path class="st3" d="M370.5,357.5c0,0,6.9-9.1,10.6-10.4c3.7-1.3,14.6-2.7,14.6-2.7l3.2,7.9l6.9,0.1c0,0-1.8,2.8,0-1.5
	c1.1-2.9,1.9-5.9,2.3-8.9l13.2-2.6l1,2.6h7.8l-6.1,6.4v4.9l2.4,1.3l-3.5,2.8L370.5,357.5z"/>
<path class="st7" d="M276.9,255.2l-11.6-12.8l-7.6-6.3l3.8-7.3l6.5-5.9l11.6,4.9l-1.5-7.6h13.1l-5.8-3.4l-1-4.4l6.8-8.6
	c0,0,4.5-2.9,5.6-3.6c1.1-0.7,8.9-2.3,8.9-2.3l10.8-0.5l3.4,3.3l8.6-5.9l11.8-3.6l6.2,3.6l6.9,6.4l5.5,1.3l9.2-5h14.4l0.2,3l-5.3,9
	l3.6,4.8l5,1.5c0,0,1.8-0.8,5.3,2l3.5,2.8l-0.4,2.3l1.4,4.4l4.4,1.8l1.7,4.9c0,0,4.5,4.7,2.7,6.7c-1.8,2-11.8,9.6-11.8,9.6
	l-17.1,23.1l-16.8,6l-51,5.6l-34.3-18.2L276.9,255.2z"/>
<rect x="250.5" y="236.1" class="st4" width="158.4" height="12.6"/>
<polygon class="st8" points="253.5,247.7 261.8,322.2 397.2,322.2 405.7,247.7 "/>
<circle class="st9" cx="363.5" cy="328.7" r="23.1"/>
<circle class="st10" cx="363.5" cy="328.7" r="14"/>
<circle class="st11" cx="363.5" cy="328.7" r="5.6"/>
<circle class="st9" cx="296.8" cy="329" r="23.1"/>
<circle class="st10" cx="296.8" cy="329" r="14"/>
<circle class="st11" cx="296.8" cy="329" r="5.6"/>
<rect x="254.7" y="351.9" class="st3" width="177.1" height="7"/>
<path class="st7" d="M194.9,176.6c0,0,31.4,9.2,31.1,40.7c-0.1,17.7-33.4,31.4-33.4,31.4s-21.1,5.4-21.1,33l8.5,3.3
	c0,0-6.8-21,16.3-30.6c23.1-9.6,35.7-17.4,37.4-39.3c2.4-31.1-28.6-47.5-38.9-45.7C189.7,170.2,194.9,176.6,194.9,176.6z"/>
<polygon class="st12" points="146.4,210.4 135.4,247.5 162.1,254.3 172.8,217.8 "/>
<polygon class="st13" points="148.6,219 139.9,243.9 145.1,245.7 154.1,220.2 "/>
<path class="st4" d="M168.2,86.4l-7.3,19.6l14.4,18l-8.9,27l23.2,7.4l9.4-27.3l21.8-7.1l4.8-19.7c0,0-3.1-3-4.8-1.1
	c-1.6,1.9-5.3,17.2-5.3,17.2l-15.3,4.3l-5.4,1.8l-3.2,10.4L179,132l2.3-8.8L166.8,105l6-15.6C172.9,89.4,173.8,83.9,168.2,86.4z"/>
<polygon class="st12" points="166.7,101.2 217.5,117.2 221,105.9 170.1,90.3 "/>
<polygon class="st14" points="141.2,247.7 123.9,304.4 134.6,317.1 155.2,251.5 "/>
<polygon class="st13" points="135.4,258.4 155.4,260.4 157.2,255.2 136.7,252.7 "/>
<polygon class="st13" points="153.1,265.8 151.2,271.5 132.2,270.3 134,264.8 "/>
<polygon class="st15" points="149.6,276.4 147.9,282.4 129,280.7 130.6,274.8 "/>
<polygon class="st15" points="184,179 194.9,181.6 199.3,166.8 188.3,164.6 "/>
<polygon class="st12" points="162.5,148.2 194.9,158.3 175.6,220.2 142.7,209.5 "/>
<polygon class="st13" points="166,158.3 150.2,205.5 155.5,207.5 171.6,160 "/>
<polygon class="st4" points="141.6,295.1 168.8,279.5 202.8,288.7 217.5,308.8 217.5,318.5 145.4,318.5 136.7,310.6 "/>
<path class="st16" d="M492,257.5c-15.7,28.8-98.7,160.7-252,67C135,260.5,51.9,242.4,3.2,238C16,362.4,121.2,459.5,249,459.5
	C370.1,459.5,470.8,372.5,492,257.5"/>
</svg>
