<svg xmlns="http://www.w3.org/2000/svg" viewBox="0 0 496.94 458.02"><defs><style>.cls-1{fill:#231f20;}.cls-1,.cls-6{stroke:#231f20;stroke-miterlimit:10;}.cls-2{fill:#818285;}.cls-3{fill:#bdbec0;}.cls-4{fill:#595a5c;opacity:0.56;isolation:isolate;}.cls-5{fill:#bcbec0;}.cls-6{fill:#fff;}.cls-7{fill:#6e6f72;}.cls-8{fill:#a7a9ac;}.cls-12,.cls-9{fill:#58595b;}.cls-10{fill:#414042;}.cls-11{fill:#939598;opacity:0.52;}.cls-12{opacity:0.34;}.cls-13{fill:#6d6e71;}.cls-14{fill:#f89521;}</style></defs><g id="Machine"><g id="Machine-2" data-name="Machine"><rect class="cls-1" x="151.45" y="148.53" width="6.13" height="129.27"/><circle class="cls-2" cx="265.15" cy="134.23" r="20.68"/><polygon class="cls-3" points="336.81 68.45 126.43 134.32 136.13 161.89 345.49 93.72 336.81 68.45"/><path class="cls-4" d="M405.06,111.14c-10.72-38.3-40.34-69.45-40.34-69.45L344.3,48.33V105l10.21,35.75,39.32,66.89,14.81-4.59S415.79,149.46,405.06,111.14ZM353,56c2-7.15,7.15-3.06,7.15-3.06l20.42,26L356,86.61Zm5.1,55.15,31.15-9.7L396.89,128l-30.13,8.68ZM402,183.67s-4.45,13.28-12.18,2l-12.19-26.53L402,152Z" transform="translate(-7.49 -41.69)"/><polygon class="cls-2" points="329.15 65.38 341.92 100.87 352.64 97.81 340.9 61.04 329.15 65.38"/><path class="cls-5" d="M302.76,178.91H243.45L220.72,392.69h11.36l1.92-9.87,76.94-1,2.38,10.89h11.23Zm1.37,151.83-54.81-1.37,52.42-28.93Zm-6.47-88.51H255.45l39.49-30Zm1.7,38.82-43.91-27.91h1.7l40.51,2.72Zm-48-73.38h35.4l-37.44,28.77Zm-4.77,48.17,49,31.32H243.45Zm-3.14,42.56h47.06L241.15,325ZM235,372.27,237.74,345l61.62,27.24Zm12.26-32.34,56.85,1.7,4.42,24.51Z" transform="translate(-7.49 -41.69)"/><path class="cls-6" d="M255.45,178.91" transform="translate(-7.49 -41.69)"/><path class="cls-7" d="M272.3,153l-10.22,18.11s.77,8.61,8.43,10.14,10.72-9.61,10.72-9.61Z" transform="translate(-7.49 -41.69)"/><circle class="cls-1" cx="154.51" cy="294.28" r="40.98"/></g></g><g id="Tank"><path class="cls-8" d="M306.47,226.37v-.22H97.68v.14c-28.76,1.22-51.74,28-51.74,61,0,33.7,24.08,61,53.78,61a49.53,49.53,0,0,0,5.19-.29H297.84c1.4.12,2.8.2,4.22.2s2.83-.08,4.23-.2h.18v0c27.64-2.54,49.38-28.78,49.38-60.79S334.11,228.91,306.47,226.37ZM102.79,239.64s-15.66.34-28.94,9.87-12.76,31.54-12.76,31.54c-4.6,7-8.18,0-8.18,0s-1.36-21,15.66-36.31S103.3,231,103.3,231a5.23,5.23,0,0,1,4.42,4.08C108.57,238.79,102.79,239.64,102.79,239.64Z" transform="translate(-7.49 -41.69)"/><path class="cls-9" d="M264.28,234v9.87H249.87V234h-3.59V340.91h3.59V336.3h14.41v4.61h3.59V234Zm0,13.28v11.59H249.87V247.3Zm-14.41,56.59V292.3h14.41v11.59Zm14.41,3.41v11.59H249.87V307.3Zm-14.41-18.41V277.3h14.41v11.59Zm0-15V262.3h14.41v11.59Zm0,59V322.3h14.41v10.59Z" transform="translate(-7.49 -41.69)"/><path class="cls-10" d="M227.3,203.58H173.77v0a9.22,9.22,0,0,0,0,18.42v0H227.3a9.24,9.24,0,1,0,0-18.47Z" transform="translate(-7.49 -41.69)"/><path class="cls-10" d="M245.56,372.58H156.05v0c-8.1.22-14.54,3.38-14.54,7.25s6.44,7,14.54,7.26v0h89.51c8.53,0,15.44-3.26,15.44-7.28S254.09,372.58,245.56,372.58Z" transform="translate(-7.49 -41.69)"/><path class="cls-10" d="M346.85,355.7h-291a6.77,6.77,0,0,0,0,13.53h291a6.77,6.77,0,1,0,0-13.53Z" transform="translate(-7.49 -41.69)"/><path class="cls-10" d="M74.62,371A16.09,16.09,0,1,0,90.7,387.13,16.09,16.09,0,0,0,74.62,371Zm0,25.71a9.45,9.45,0,1,1,9.44-9.45A9.45,9.45,0,0,1,74.62,396.75Z" transform="translate(-7.49 -41.69)"/><path class="cls-10" d="M109.62,371a16.09,16.09,0,1,0,16.08,16.09A16.09,16.09,0,0,0,109.62,371Zm0,25.71a9.45,9.45,0,1,1,9.44-9.45A9.45,9.45,0,0,1,109.62,396.75Z" transform="translate(-7.49 -41.69)"/><path class="cls-10" d="M295.62,371a16.09,16.09,0,1,0,16.08,16.09A16.09,16.09,0,0,0,295.62,371Zm0,25.71a9.45,9.45,0,1,1,9.44-9.45A9.45,9.45,0,0,1,295.62,396.75Z" transform="translate(-7.49 -41.69)"/><path class="cls-10" d="M331.62,371a16.09,16.09,0,1,0,16.08,16.09A16.09,16.09,0,0,0,331.62,371Zm0,25.71a9.45,9.45,0,1,1,9.44-9.45A9.45,9.45,0,0,1,331.62,396.75Z" transform="translate(-7.49 -41.69)"/><path class="cls-9" d="M132.37,298.25a7.85,7.85,0,0,1-3.19-3.22,9.94,9.94,0,0,1-1.13-4.81v-7a9.94,9.94,0,0,1,1.13-4.81,7.83,7.83,0,0,1,3.19-3.21,10.51,10.51,0,0,1,9.52,0,7.87,7.87,0,0,1,3.18,3.21,9.94,9.94,0,0,1,1.13,4.81v7a9.94,9.94,0,0,1-1.13,4.81,7.89,7.89,0,0,1-3.18,3.22,10.59,10.59,0,0,1-9.52,0Zm7-4.09a3.7,3.7,0,0,0,1.48-1.53,4.92,4.92,0,0,0,.52-2.29v-7.28a5,5,0,0,0-.52-2.29,3.7,3.7,0,0,0-1.48-1.53,4.85,4.85,0,0,0-4.45,0,3.68,3.68,0,0,0-1.47,1.53,4.84,4.84,0,0,0-.53,2.29v7.28a4.81,4.81,0,0,0,.53,2.29,3.68,3.68,0,0,0,1.47,1.53,4.85,4.85,0,0,0,4.45,0Z" transform="translate(-7.49 -41.69)"/><path class="cls-9" d="M155.33,299.12h-4.86V274.28h4.86Z" transform="translate(-7.49 -41.69)"/><path class="cls-9" d="M160.45,274.28h4.69v24.84h-4.69Zm2.09,20.33H177.1v4.51H162.54Z" transform="translate(-7.49 -41.69)"/></g><g id="pump"><path class="cls-11" d="M380,256V357h78.89V256s-2.3-17.47-17.1-15.94h-52S380,242.32,380,256Z" transform="translate(-7.49 -41.69)"/><path class="cls-12" d="M396.57,251h44.34s5.28-.34,5.45,7.23,0,23.83,0,23.83.6,4.43-5,4.34-44.77,0-44.77,0-5.1,1.11-5.27-3.57,0-26.79,0-26.79S391.81,251,396.57,251Z" transform="translate(-7.49 -41.69)"/><path class="cls-9" d="M436.43,253.18a3.14,3.14,0,0,0-.45,0v0H402.43a2.66,2.66,0,0,0,0,5.32H436v-.05a2.14,2.14,0,0,0,.45.05,2.66,2.66,0,0,0,0-5.32Z" transform="translate(-7.49 -41.69)"/><rect class="cls-13" x="378.87" y="316.96" width="65.49" height="4.86"/><rect class="cls-13" x="371.85" y="323.48" width="79.53" height="14.04"/><path class="cls-14" d="M380,259.85" transform="translate(-7.49 -41.69)"/><path class="cls-13" d="M380,259.85l-7,.64s-5.36,1.66-6.64,12.77c-1.25,10.9,0,20.42-7.92,32.42s-24.25,32.43-20.17,44.17c4.67,13.41,17.62,11.62,17.62,11.62s14.94-1.66,15.83-12.51c1.05-12.73-.25-59.24-.25-59.24L380,289ZM366.7,347.3s-1.91,10-12.25,8.4-10.09-9-10.09-9-4.21-8.68,22.34-43.4Z" transform="translate(-7.49 -41.69)"/></g><g id="Background"><g id="Background-2" data-name="Background"><path class="cls-14" d="M504.43,294.4c-16,29.33-100.31,163.4-256.23,68.15C141.48,297.36,57,279,7.49,274.55c13,126.5,120,225.16,249.9,225.16C380.49,499.64,482.88,411.16,504.43,294.4Z" transform="translate(-7.49 -41.69)"/></g></g></svg>