<svg xmlns="http://www.w3.org/2000/svg" viewBox="0 0 505.12 485.82"><defs><style>.cls-1,.cls-2,.cls-5{fill:#808285;}.cls-1{opacity:0.36;}.cls-3{fill:#a7a9ac;}.cls-4{fill:#58595b;}.cls-5{opacity:0.98;}.cls-6{fill:#6d6e71;}.cls-7{fill:#e6e7e8;}.cls-8{fill:none;stroke:#414042;stroke-miterlimit:10;stroke-width:8px;}.cls-9{fill:#f89623;}</style></defs><g id="Plane"><path class="cls-1" d="M233.83,249.82l-5.32-3.32-16.69,25.83,6.76,3.77-4.35,4.61-16.91-15.14,14.14-43.66S96.37,73.29,95,41.64,119,19.3,127.24,26.92,195.85,110,233.59,212.15l49.73,12.72,3.58,18.34-6.43.22-.2-5.89-31.5-3.06-1.07,6.6-4.1.43,5.28,16.08L235.94,247Z" transform="translate(-7.53 -19.48)"/><polygon class="cls-2" points="167.61 66.25 196.78 118.35 200.22 117.55 194.9 105.08 311.64 98.78 312.76 105.47 327.72 103.32 313.03 77.59 167.61 66.25"/><polygon class="cls-3" points="198.97 106.94 203.54 117.07 308.17 105.76 305.64 101.74 198.97 106.94"/><path class="cls-2" d="M227.19,85.74l33.71,2.75L249.82,72s-5-5.31-10.81-3a64.49,64.49,0,0,0-11.26,6s-2.5,5.11-2.3,8.17S227.19,85.74,227.19,85.74Z" transform="translate(-7.53 -19.48)"/><polygon class="cls-2" points="117.79 90.03 153.18 140.7 150.41 143.63 140.81 130.66 75.33 218.47 79.34 223.69 68.68 237.02 52.7 210.31 117.79 90.03"/><polygon class="cls-3" points="140.77 135.78 80.22 218.08 82.98 220.81 147.91 145.58 140.77 135.78"/><path class="cls-2" d="M84.29,179.64l15.56-26.91L97.9,149s-5.12-5.69-10.48-3-13.79,9.37-13.79,9.37-2.64,1.2.3,6.45S84.29,179.64,84.29,179.64Z" transform="translate(-7.53 -19.48)"/><path class="cls-3" d="M109.61,49.27s6.27-10,15.93-7.26L128,33.33s-17.92-3.56-27.42,12.86Z" transform="translate(-7.53 -19.48)"/><polygon class="cls-2" points="221.22 228.24 205.47 252.73 212.79 256.67 227.6 232.58 221.22 228.24"/><polygon class="cls-2" points="242.41 215.65 241.25 223.73 271.34 227.66 272.11 219.31 242.41 215.65"/></g><g id="Train"><path class="cls-3" d="M61,337H276s3.47,4.91,3.47-8.76V301.68s3.3-2.47-5.69-2.47-91-22-114-91.76c0,0-1.56-9.68-18.88-9.68H69.53s-5.28-5.72-13.2,12.32-14.51,42.3-14.51,42.3v63.48S43.8,337,61,337Z" transform="translate(-7.53 -19.48)"/><path class="cls-2" d="M71.51,207.45h62.67s5.94-2.2,10.78,7.26,9.51,23.09,9.51,23.09,3.69,7.69-7.31,7.69H57.65s-9.24-.66-5.72-8.68,10.34-24.3,10.34-24.3S61.39,207.45,71.51,207.45Z" transform="translate(-7.53 -19.48)"/><circle class="cls-4" cx="55.51" cy="271.43" r="10.23"/><circle class="cls-4" cx="128.96" cy="271.43" r="10.23"/><polygon class="cls-2" points="260.26 282.31 260.26 299.58 268.28 300.68 268.28 283.74 260.26 282.31"/><path class="cls-2" d="M264.05,301.13v17.49s-6.27,1.21-10.34-1.54V299.21Z" transform="translate(-7.53 -19.48)"/><polygon class="cls-2" points="241.23 279.01 241.23 296.61 229.47 294.19 229.47 274.94 241.23 279.01"/><polygon class="cls-2" points="223.64 272.86 223.64 292.65 209.9 288.58 209.9 266.59 223.64 272.86"/><polygon class="cls-2" points="203.63 262.85 203.63 286.6 187.68 281.65 187.68 252.73 203.63 262.85"/><path class="cls-2" d="M188.83,265.62v30.79l-15.72-6.6-2.42-42.67S176.08,256.71,188.83,265.62Z" transform="translate(-7.53 -19.48)"/><path class="cls-4" d="M38.85,348.2H57.49V340h28.2v8.25h40.58V340h20.45v8.25L280.09,340V349s-102.53,2.31-113.74,14.35H38.85Z" transform="translate(-7.53 -19.48)"/></g><g id="Ship"><path class="cls-4" d="M307,126.71v41.86H428.53V126.71s-.5-9-13.95-9H319.91S307,114.76,307,126.71Z" transform="translate(-7.53 -19.48)"/><path class="cls-5" d="M445.44,162.57H291.16s-21.11-4.87-21.11,14.61v68.21h91.57L360,195.05l6.48-2.62,5.86,2.62-1.77,50.34h97.58V177.18S467.36,162.57,445.44,162.57Z" transform="translate(-7.53 -19.48)"/><path class="cls-6" d="M360,195.05l5.84,184.31,6.5-184.31,125,54.4L448.68,379.36s-8.93,13.81-29.23,0-30.85,0-30.85,0-6.77,12.48-25.71,11.52S345,367.77,337.45,369.62s-8.12,15.43-30.86,12.18-21.92-7.31-21.92-7.31L240,247Z" transform="translate(-7.53 -19.48)"/><rect class="cls-3" x="335.15" y="90.13" width="50.16" height="7.8"/><rect class="cls-3" x="335.15" y="75.33" width="50.16" height="8.66"/><path class="cls-3" d="M342.68,90.12h50.16s-.36-11.19-7.22-11.19H349.9S342.68,80.38,342.68,90.12Z" transform="translate(-7.53 -19.48)"/><path class="cls-7" d="M369.11,66.66s10.38-15.15,28.42-14.07,29.23,7.58,42.58,2.17,13.54-18,28.06-24.9,44.84,0,44.48,22.37-22.37,31.4-37.89,26.7-27.43-10.1-37.17-4-28.87,6.5-35.73,2.17S392.3,60.89,369.11,66.66Z" transform="translate(-7.53 -19.48)"/><path class="cls-8" d="M128.21,379.91S168,413.2,198,383.15c0,0,38.16,31.49,69.65,0,0,0,34,32.75,66.76,0,0,0,32.48,30.86,63.34,0,0,0,38.16,31.13,69.28,0" transform="translate(-7.53 -19.48)"/><rect class="cls-3" x="284.72" y="155.81" width="17.59" height="9.47"/><rect class="cls-3" x="317.58" y="155.81" width="17.59" height="9.47"/><rect class="cls-3" x="350.44" y="155.81" width="17.59" height="9.47"/><rect class="cls-3" x="383.3" y="155.81" width="17.59" height="9.47"/><rect class="cls-3" x="317.58" y="109.16" width="17.59" height="9.47"/><rect class="cls-3" x="350.44" y="109.16" width="17.59" height="9.47"/><rect class="cls-3" x="383.3" y="109.16" width="17.59" height="9.47"/><rect class="cls-3" x="416.16" y="155.81" width="17.59" height="9.47"/></g><g id="Background"><g id="Background-2" data-name="Background"><g id="Background-2-2" data-name="Background-2"><path class="cls-9" d="M504.47,300c-16,29.33-100.31,163.4-256.23,68.15C141.52,303,57,284.59,7.53,280.14c13,126.5,120,225.16,249.9,225.16C380.53,505.23,482.92,416.75,504.47,300Z" transform="translate(-7.53 -19.48)"/></g></g></g></svg>