<svg id="Layer_1" data-name="Layer 1" xmlns="http://www.w3.org/2000/svg" viewBox="0 0 505.12 485.82"><defs><style>.cls-1,.cls-3,.cls-6{fill:#36865b;}.cls-1{opacity:0.36;}.cls-2,.cls-4{fill:#104734;}.cls-2{opacity:0.8;}.cls-5{fill:#808285;}.cls-6{opacity:0.98;}.cls-7{fill:#559462;}.cls-8{fill:#79a285;}.cls-9{fill:none;stroke:#104734;stroke-miterlimit:10;stroke-width:8px;}.cls-10{fill:#fff;}.cls-11{fill:#f7de02;}</style></defs><path class="cls-1" d="M229.61,247.69l-5.31-3.32L207.61,270.2l6.76,3.77L210,278.58l-16.91-15.14,14.14-43.66S92.16,71.16,90.75,39.51,114.83,17.17,123,24.79,191.64,107.84,229.37,210l49.74,12.72,3.57,18.34-6.43.22-.19-5.89-31.5-3.06-1.07,6.6-4.1.43,5.27,16.08-12.93-10.55Z" transform="translate(-3.32 -17.35)"/><polygon class="cls-2" points="167.61 66.25 196.78 118.35 200.22 117.55 194.9 105.08 311.64 98.78 312.76 105.47 327.72 103.32 313.03 77.59 167.61 66.25"/><polygon class="cls-3" points="198.97 106.94 203.54 117.07 308.17 105.76 305.64 101.74 198.97 106.94"/><path class="cls-4" d="M223,83.61l33.72,2.75L245.61,69.84s-5-5.31-10.81-3a64.49,64.49,0,0,0-11.26,6S221,77.94,221.23,81,223,83.61,223,83.61Z" transform="translate(-3.32 -17.35)"/><polygon class="cls-2" points="117.79 90.03 153.18 140.7 150.41 143.63 140.81 130.66 75.33 218.47 79.34 223.69 68.68 237.02 52.7 210.31 117.79 90.03"/><polygon class="cls-3" points="140.77 135.78 80.22 218.08 82.98 220.81 147.91 145.58 140.77 135.78"/><path class="cls-4" d="M80.08,177.51,95.64,150.6l-2-3.74s-5.12-5.69-10.49-3-13.79,9.37-13.79,9.37-2.63,1.2.3,6.45S80.08,177.51,80.08,177.51Z" transform="translate(-3.32 -17.35)"/><path class="cls-4" d="M105.4,47.14s6.27-10,15.93-7.26l2.45-8.68s-17.92-3.56-27.42,12.86Z" transform="translate(-3.32 -17.35)"/><polygon class="cls-3" points="221.22 228.24 205.47 252.73 212.79 256.67 227.6 232.58 221.22 228.24"/><polygon class="cls-3" points="242.41 215.65 241.25 223.73 271.34 227.66 272.11 219.31 242.41 215.65"/><path class="cls-3" d="M56.74,334.85H271.82s3.47,4.91,3.47-8.76V299.55s3.3-2.47-5.69-2.47-91-22.05-114-91.76c0,0-1.57-9.68-18.89-9.68H65.32S60,189.92,52.12,208s-14.51,42.3-14.51,42.3v63.48S39.58,334.85,56.74,334.85Z" transform="translate(-3.32 -17.35)"/><path class="cls-4" d="M67.29,205.32H130s5.94-2.2,10.78,7.25,9.51,23.1,9.51,23.1,3.68,7.69-7.31,7.69H53.44s-9.24-.66-5.72-8.68,10.34-24.3,10.34-24.3S57.18,205.32,67.29,205.32Z" transform="translate(-3.32 -17.35)"/><circle class="cls-4" cx="55.51" cy="271.43" r="10.23"/><circle class="cls-4" cx="128.96" cy="271.43" r="10.23"/><polygon class="cls-5" points="260.26 282.31 260.26 299.58 268.28 300.68 268.28 283.74 260.26 282.31"/><path class="cls-4" d="M259.84,299v17.49s-6.27,1.21-10.34-1.54V297.08Z" transform="translate(-3.32 -17.35)"/><polygon class="cls-4" points="241.23 279.01 241.23 296.61 229.47 294.19 229.47 274.94 241.23 279.01"/><polygon class="cls-4" points="223.64 272.86 223.64 292.65 209.9 288.58 209.9 266.59 223.64 272.86"/><polygon class="cls-4" points="203.63 262.85 203.63 286.6 187.68 281.65 187.68 252.73 203.63 262.85"/><path class="cls-4" d="M184.62,263.49v30.79l-15.72-6.6L166.48,245S171.87,254.58,184.62,263.49Z" transform="translate(-3.32 -17.35)"/><path class="cls-4" d="M34.64,346.07H53.27v-8.25H81.48v8.25h40.57v-8.25h20.46v8.25l133.37-8.25v9.07s-102.53,2.31-113.74,14.35H34.64Z" transform="translate(-3.32 -17.35)"/><path class="cls-4" d="M302.74,124.58v41.86H424.32V124.58s-.5-9-13.95-9H315.7S302.74,112.63,302.74,124.58Z" transform="translate(-3.32 -17.35)"/><path class="cls-6" d="M441.22,160.44H287s-21.11-4.88-21.11,14.61v68.21h91.57l-1.6-50.34,6.47-2.62,5.87,2.62-1.78,50.34H464V175.05S463.15,160.44,441.22,160.44Z" transform="translate(-3.32 -17.35)"/><path class="cls-4" d="M355.81,192.92l5.84,184.31,6.5-184.31,125,54.4L444.47,377.23s-8.93,13.81-29.23,0-30.85,0-30.85,0-6.77,12.48-25.72,11.52-17.89-23.11-25.44-21.26-8.12,15.43-30.85,12.18-21.92-7.31-21.92-7.31L235.8,244.88Z" transform="translate(-3.32 -17.35)"/><rect class="cls-7" x="335.15" y="90.13" width="50.16" height="7.8"/><rect class="cls-8" x="335.15" y="75.33" width="50.16" height="8.66"/><path class="cls-7" d="M338.47,88h50.16s-.36-11.19-7.22-11.19H345.68S338.47,78.25,338.47,88Z" transform="translate(-3.32 -17.35)"/><path class="cls-8" d="M364.9,64.53s10.37-15.15,28.42-14.07S422.55,58,435.9,52.63,449.43,34.58,464,27.73s44.84,0,44.48,22.37-22.38,31.4-37.89,26.7-27.43-10.1-37.17-4-28.87,6.5-35.73,2.17S388.09,58.76,364.9,64.53Z" transform="translate(-3.32 -17.35)"/><path class="cls-9" d="M124,377.78s39.79,33.29,69.83,3.24c0,0,38.16,31.49,69.65,0,0,0,34,32.75,66.76,0,0,0,32.48,30.86,63.33,0,0,0,38.17,31.13,69.29,0" transform="translate(-3.32 -17.35)"/><rect class="cls-10" x="284.72" y="155.81" width="17.59" height="9.47"/><rect class="cls-10" x="317.58" y="155.81" width="17.59" height="9.47"/><rect class="cls-10" x="350.44" y="155.81" width="17.59" height="9.47"/><rect class="cls-10" x="383.3" y="155.81" width="17.59" height="9.47"/><rect class="cls-10" x="317.58" y="109.16" width="17.59" height="9.47"/><rect class="cls-10" x="350.44" y="109.16" width="17.59" height="9.47"/><rect class="cls-10" x="383.3" y="109.16" width="17.59" height="9.47"/><rect class="cls-10" x="416.16" y="155.81" width="17.59" height="9.47"/><g id="Background"><g id="Background-2"><path class="cls-11" d="M500.26,297.86C484.26,327.19,400,461.26,244,366,137.31,300.82,52.83,282.46,3.32,278c13,126.5,120,225.16,249.9,225.16C376.32,503.1,478.71,414.62,500.26,297.86Z" transform="translate(-3.32 -17.35)"/></g></g></svg>